<svg width="122" height="30" viewBox="0 0 122 30" fill="none" xmlns="http://www.w3.org/2000/svg">
<g style="mix-blend-mode:exclusion">
<path  d="M119.078 8.79155C120.797 8.09005 122 6.46899 122 4.58125C122 2.0511 119.838 0 117.171 0H111.779C109.743 0 107.992 1.15629 107.216 2.81429C105.497 3.51579 104.294 5.13685 104.294 7.02459C104.294 9.55474 106.456 11.6058 109.123 11.6058H114.515C116.551 11.6058 118.302 10.4495 119.078 8.79155ZM106.789 4.73396C106.789 4.05058 106.941 3.40102 107.216 2.81429C107.801 2.57556 108.446 2.44333 109.123 2.44333H119.505V6.87188C119.505 7.55526 119.352 8.20482 119.078 8.79155C118.493 9.03028 117.848 9.1625 117.171 9.1625H106.789V4.73396Z" fill="white"/>
<path d="M16.16 4.10431C16.16 5.05999 16.908 5.79986 17.8741 5.79986C18.8402 5.79986 19.5881 5.05999 19.5881 4.10431C19.5881 3.14864 18.8402 2.40876 17.8741 2.40876C16.908 2.40876 16.16 3.14864 16.16 4.10431Z" fill="white"/>
<path d="M0 24.1426H2.49313V16.257C2.49313 13.1742 4.48764 11.1703 7.32357 11.1703C9.8167 11.1703 11.5307 12.5576 11.5307 15.6404V24.1426H14.0239V15.4863C14.0239 11.3245 11.5307 8.85821 7.79104 8.85821C5.92119 8.85821 4.58113 9.53643 3.7397 10.1838C3.24107 10.5538 2.83594 10.9854 2.5243 11.4786H2.49313V2.5629H0V24.1426Z" fill="white"/>
<path d="M19.1206 24.1426V9.1665H16.6275V24.1426H19.1206Z" fill="white"/>
<path  d="M22.025 30H24.5181V22.1143H24.5493L24.8609 22.5459C25.3595 23.3783 27.167 24.8889 30.1276 24.8889C34.2101 24.8889 37.607 21.4978 37.607 16.8735C37.607 12.2493 34.2101 8.85821 30.1276 8.85821C27.1359 8.85821 25.3595 10.3996 24.8609 11.1703L24.5493 11.6328H24.5181V9.1665H22.025V30ZM24.5181 16.8735C24.5181 13.5133 26.8242 11.1703 29.816 11.1703C32.8078 11.1703 35.1139 13.5133 35.1139 16.8735C35.1139 20.2338 32.8078 22.5768 29.816 22.5768C26.8242 22.5768 24.5181 20.2338 24.5181 16.8735Z" fill="white"/>
<path  d="M39.2719 16.8735C39.2719 21.4978 42.7 24.8889 47.3746 24.8889C52.0492 24.8889 55.4773 21.4978 55.4773 16.8735C55.4773 12.2493 52.0492 8.85821 47.3746 8.85821C42.7 8.85821 39.2719 12.2493 39.2719 16.8735ZM41.765 16.8735C41.765 13.5133 44.1335 11.1703 47.3746 11.1703C50.6157 11.1703 52.9841 13.5133 52.9841 16.8735C52.9841 20.2338 50.6157 22.5768 47.3746 22.5768C44.1335 22.5768 41.765 20.2338 41.765 16.8735Z" fill="white"/>
<path d="M57.6221 24.1426H63.4832V21.8305H60.1152V2.5629H57.6221V24.1426Z" fill="white"/>
<path d="M65.562 4.10431C65.562 5.05999 66.3099 5.79986 67.276 5.79986C68.2421 5.79986 68.99 5.05999 68.99 4.10431C68.99 3.14864 68.2421 2.40876 67.276 2.40876C66.3099 2.40876 65.562 3.14864 65.562 4.10431Z" fill="white"/>
<path d="M71.0072 24.1426H73.5003V16.257C73.5003 13.1742 75.4948 11.1703 78.3308 11.1703C80.8239 11.1703 82.5379 12.5576 82.5379 15.6404V24.1426H85.0311V15.4863C85.0311 11.3245 82.5379 8.85821 78.7982 8.85821C76.9284 8.85821 75.5883 9.53643 74.7469 10.1838C74.2483 10.5538 73.8431 10.9854 73.5315 11.4786H73.5003V9.1665H71.0072V24.1426Z" fill="white"/>
<path d="M87.6788 24.1426H90.1719V16.9873H93.2883L98.5862 24.1426H101.703L95.4698 15.7542L100.851 9.19708H97.8817L93.2883 14.6752H90.1719V2.5629H87.6788V24.1426Z" fill="white"/>
<path d="M66.0294 9.1665V24.1426H68.5226V9.1665H66.0294Z" fill="white"/>
</g>
</svg>
