<?xml version="1.0" encoding="UTF-8"?>
<svg width="30px" height="27px" viewBox="0 0 30 27" version="1.1" xmlns="http://www.w3.org/2000/svg" xmlns:xlink="http://www.w3.org/1999/xlink">
    <!-- Generator: Sketch 49.2 (51160) - http://www.bohemiancoding.com/sketch -->
    <title>telegram</title>
    <desc>Created with Sketch.</desc>
    <defs></defs>
    <g id="Page-1" stroke="none" stroke-width="1" fill="none" fill-rule="evenodd">
        <g id="Кнопки-соц.-сети" transform="translate(-153.000000, -50.000000)" fill="#FFFFFF" fill-rule="nonzero">
            <g id="Иконки" transform="translate(0.000000, 28.000000)">
                <g id="telegram" transform="translate(153.000000, 22.000000)">
                    <path d="M27.7793778,0.0025149911 C27.3916704,0.0205836896 27.026505,0.133512766 26.7019133,0.259993656 L26.6974054,0.259993656 C26.3683046,0.390991431 24.8039538,1.05049951 22.4281225,2.04879481 C20.0522913,3.05160816 16.9686701,4.35255445 13.9075897,5.64446582 C7.79444591,8.22377282 1.78499143,10.7624244 1.78499143,10.7624244 L1.85712292,10.7353219 C1.85712292,10.7353219 1.44236686,10.8708366 1.00957791,11.1689707 C0.788675515,11.3135203 0.545231159,11.5122759 0.333345772,11.8239607 C0.121459231,12.1356455 -0.0498536346,12.6144666 0.0132619963,13.1068383 C0.116951302,13.9425153 0.657937478,14.443922 1.04564366,14.7194694 C1.43785893,14.9995348 1.81204132,15.1305325 1.81204132,15.1305325 L1.82105718,15.1305325 L7.45633042,17.0322628 C7.70879063,17.8453542 9.17396124,22.6696967 9.52560168,23.7809222 C9.73298029,24.4449472 9.93584981,24.8605273 10.18831,25.1767289 C10.3100322,25.3393472 10.4542952,25.474863 10.6256069,25.5832752 C10.6932305,25.6239295 10.765362,25.65555 10.8374934,25.6826525 C10.8600342,25.6962043 10.8825762,25.7007212 10.9096249,25.7052381 L10.8510184,25.6916874 C10.8690513,25.6962043 10.8825762,25.7097561 10.8961,25.714273 C10.9411827,25.7278248 10.9727406,25.7323417 11.0313471,25.7413755 C11.9239737,26.0124059 12.6407807,25.4567943 12.6407807,25.4567943 L12.6813544,25.4251738 L16.0084199,22.3896325 L21.5850855,26.6764309 L21.7113156,26.730637 C22.8744364,27.2410774 24.0510811,26.9564963 24.6732146,26.4550896 C25.2998572,25.9491661 25.5433016,25.3032098 25.5433016,25.3032098 L25.5838752,25.1993145 L29.8937318,3.07871063 C30.0154539,2.53213278 30.0470106,2.02169234 29.9117646,1.52480255 C29.7765175,1.02791392 29.429385,0.562644645 29.010121,0.314199752 C28.5863479,0.0612379722 28.1670839,-0.0155537074 27.7793778,0.0025149911 Z M27.6621635,2.37403138 C27.6576556,2.44630618 27.6711805,2.43727241 27.6396227,2.57730395 L27.6396227,2.59085577 L23.3703398,24.4810846 C23.352307,24.512704 23.3207492,24.5804619 23.2350939,24.6482198 C23.1449295,24.7204946 23.072798,24.7656657 22.6986156,24.6165993 L15.8776819,19.3766767 L11.7571699,23.1394829 L12.6227478,17.6014274 C12.6227478,17.6014274 23.3072254,7.62298888 23.767063,7.193857 C24.2269019,6.76472512 24.0736219,6.67438163 24.0736219,6.67438163 C24.1051797,6.15038937 23.3793569,6.52079827 23.3793569,6.52079827 L9.32724008,15.2434616 L9.32273215,15.220876 L2.58745484,12.9487369 L2.58745484,12.94422 C2.58294575,12.94422 2.57392989,12.9397031 2.56942197,12.9397031 C2.57392989,12.9397031 2.60548771,12.9261513 2.60548771,12.9261513 L2.64155346,12.9080826 L2.6776192,12.8945308 C2.6776192,12.8945308 8.69158161,10.3558792 14.8047254,7.77657224 C17.8658058,6.48466088 20.949427,5.18371458 23.3207492,4.18090124 C25.6920725,3.18260593 27.445769,2.45082306 27.5449504,2.41016878 C27.6396227,2.37403138 27.5945399,2.37403138 27.6621635,2.37403138 Z" id="Shape"></path>
                </g>
            </g>
        </g>
    </g>
</svg>